# xmcd
#
# Track frame offsets: 
#        150
#        29532
#        53583
#        78061
#        123352
#        146591
#        201602
#        227647
#        245816
#        261275
#
# Disc length: 3981 seconds
#
# Revision: 1
# Processed by: cddbd v1.5.2PL0 Copyright (c) Steve Scherf et al.
# Submitted via: ExactAudioCopyFreeDBPlugin 1.0
#
DISCID=8c0f8b0a
DTITLE=Various Artist - Living On Impulse By Tom Barman [CD1) Come In !
DYEAR=2012
DGENRE=Jazz
TTITLE0=Archie Shepp - Prayer
TTITLE1=Freddie Hubbard - Carnival (Manha De Carnaval)
TTITLE2=Paul Gonsalves - Duke's Place
TTITLE3=Ahmad Jamal - Manhattan Reflections
TTITLE4=John Coltrane - Alabama
TTITLE5=Keith Jarrett  - De Drums
TTITLE6=Gary Saracho  - Senor Baker
TTITLE7=Curtis Fuller - The Breeze And I
TTITLE8=Michael White  - The Land Of Spirit And Light
TTITLE9=Alice Coltrane  - Turiya and Ramakrishna
EXTD=YEAR: 2012
EXTT0=
EXTT1=
EXTT2=
EXTT3=
EXTT4=
EXTT5=
EXTT6=
EXTT7=
EXTT8=
EXTT9=
PLAYORDER=
